<svg width="30" height="30" viewBox="0 0 30 30" fill="black" xmlns="http://www.w3.org/2000/svg">
<g id="Home / undefined / Glyph: undefined">
<path id="Vector" d="M13.1869 3.16486C14.2343 2.28163 15.7657 2.28163 16.8131 3.16487L25.2506 10.28C25.8843 10.8144 26.25 11.6011 26.25 12.4301V24.0674C26.25 25.2755 25.2706 26.2549 24.0625 26.2549H19.6875C18.4794 26.2549 17.5 25.2755 17.5 24.0674V17.8085C17.5 17.636 17.3601 17.496 17.1875 17.496H12.8125C12.6399 17.496 12.5 17.636 12.5 17.8085V24.0674C12.5 25.2755 11.5206 26.2549 10.3125 26.2549H5.9375C4.72938 26.2549 3.75 25.2755 3.75 24.0674V12.4301C3.75 11.6011 4.11569 10.8144 4.7494 10.28L13.1869 3.16486ZM15.6044 4.59825C15.2552 4.30383 14.7448 4.30383 14.3956 4.59825L5.95814 11.7134C5.7469 11.8915 5.625 12.1538 5.625 12.4301V24.0674C5.625 24.24 5.76491 24.3799 5.9375 24.3799H10.3125C10.4851 24.3799 10.625 24.24 10.625 24.0674V17.8085C10.625 16.6004 11.6044 15.621 12.8125 15.621H17.1875C18.3956 15.621 19.375 16.6004 19.375 17.8085V24.0674C19.375 24.24 19.5149 24.3799 19.6875 24.3799H24.0625C24.2351 24.3799 24.375 24.24 24.375 24.0674V12.4301C24.375 12.1538 24.2531 11.8915 24.0419 11.7134L15.6044 4.59825Z" fill="black"/>
</g>
</svg>
